<?xml version="1.0" encoding="UTF-8"?>
<svg version="1.1" xmlns="http://www.w3.org/2000/svg" width="220" height="108">
<path d="M0,0 L4,1 L6,5 L6,39 L11,41 L14,43 L13,29 L11,26 L13,24 L13,11 L11,7 L15,5 L17,0 L19,0 L23,6 L26,7 L26,9 L23,11 L23,24 L25,27 L23,29 L23,60 L26,65 L17,72 L13,80 L-1,72 L-4,69 L-5,61 L-2,56 L5,55 L8,58 L1,60 L0,63 L8,67 L13,69 L13,48 L11,53 L7,51 L1,46 L-5,45 L-4,41 L-3,38 L-3,30 L-5,26 L-3,23 L-3,11 L-5,7 L-1,3 Z " fill="#EA3728" transform="translate(192,28)"/>
<path d="M0,0 L2,0 L6,6 L9,8 L16,8 L14,12 L10,14 L2,14 L-3,10 L-3,24 L2,23 L5,21 L8,21 L13,26 L13,28 L11,28 L12,43 L13,46 L4,47 L-2,51 L-6,53 L-9,46 L-16,43 L-14,39 L-13,37 L-14,30 L-9,33 L-9,39 L-2,39 L1,41 L2,28 L-6,31 L-10,31 L-15,26 L-13,23 L-13,11 L-15,7 L-6,6 L-1,3 Z M-12,36 Z M-10,39 Z " fill="#EA3728" transform="translate(76,28)"/>
<path d="M0,0 L4,1 L5,3 L6,33 L8,36 L6,38 L6,51 L8,54 L6,56 L6,66 L9,71 L5,74 L5,80 L2,80 L-2,73 L-6,72 L-4,67 L-4,56 L-6,53 L-4,51 L-4,38 L-5,34 L-4,33 L-4,14 L-6,11 L2,9 Z M2,6 Z " fill="#EA3728" transform="translate(8,1)"/>
<path d="M0,0 L2,0 L6,6 L9,8 L17,8 L15,12 L9,17 L11,23 L5,22 L4,19 L6,15 L1,13 L-3,10 L-3,24 L-1,27 L-3,29 L-4,39 L0,41 L4,42 L6,38 L8,38 L9,35 L11,36 L10,41 L4,46 L1,53 L-3,51 L-10,45 L-15,45 L-13,40 L-13,29 L-15,26 L-13,24 L-13,11 L-15,7 L-3,5 Z " fill="#EA3728" transform="translate(158,28)"/>
<path d="M0,0 L4,1 L5,3 L6,17 L15,19 L15,21 L6,23 L6,36 L8,39 L6,41 L5,51 L9,53 L13,54 L13,51 L16,48 L18,48 L17,55 L12,60 L10,65 L6,63 L-1,57 L-6,57 L-4,52 L-4,41 L-6,38 L-4,36 L-4,23 L-4,19 L-4,14 L-6,11 L0,9 L2,9 Z M2,6 Z " fill="#EA3728" transform="translate(112,16)"/>
<path d="M0,0 L2,0 L6,6 L9,7 L9,9 L6,11 L6,23 L8,27 L6,30 L6,38 L9,44 L5,48 L5,53 L1,51 L-2,46 L-6,45 L-4,40 L-4,29 L-6,26 L-4,24 L-3,10 L-6,9 L-6,7 L-2,5 Z " fill="#EA3728" transform="translate(37,28)"/>
<path d="M0,0 L2,0 L5,5 L8,6 L8,8 L4,10 L2,15 L0,15 L-2,10 L-6,8 L-6,6 L-1,5 Z " fill="#EA3627" transform="translate(37,9)"/>
</svg>
